%TF.GenerationSoftware,KiCad,Pcbnew,7.0.9*%
%TF.CreationDate,2024-02-25T17:12:21+01:00*%
%TF.ProjectId,Prometheus,50726f6d-6574-4686-9575-732e6b696361,rev?*%
%TF.SameCoordinates,Original*%
%TF.FileFunction,Soldermask,Top*%
%TF.FilePolarity,Negative*%
%FSLAX46Y46*%
G04 Gerber Fmt 4.6, Leading zero omitted, Abs format (unit mm)*
G04 Created by KiCad (PCBNEW 7.0.9) date 2024-02-25 17:12:21*
%MOMM*%
%LPD*%
G01*
G04 APERTURE LIST*
G04 Aperture macros list*
%AMRoundRect*
0 Rectangle with rounded corners*
0 $1 Rounding radius*
0 $2 $3 $4 $5 $6 $7 $8 $9 X,Y pos of 4 corners*
0 Add a 4 corners polygon primitive as box body*
4,1,4,$2,$3,$4,$5,$6,$7,$8,$9,$2,$3,0*
0 Add four circle primitives for the rounded corners*
1,1,$1+$1,$2,$3*
1,1,$1+$1,$4,$5*
1,1,$1+$1,$6,$7*
1,1,$1+$1,$8,$9*
0 Add four rect primitives between the rounded corners*
20,1,$1+$1,$2,$3,$4,$5,0*
20,1,$1+$1,$4,$5,$6,$7,0*
20,1,$1+$1,$6,$7,$8,$9,0*
20,1,$1+$1,$8,$9,$2,$3,0*%
%AMHorizOval*
0 Thick line with rounded ends*
0 $1 width*
0 $2 $3 position (X,Y) of the first rounded end (center of the circle)*
0 $4 $5 position (X,Y) of the second rounded end (center of the circle)*
0 Add line between two ends*
20,1,$1,$2,$3,$4,$5,0*
0 Add two circle primitives to create the rounded ends*
1,1,$1,$2,$3*
1,1,$1,$4,$5*%
%AMRotRect*
0 Rectangle, with rotation*
0 The origin of the aperture is its center*
0 $1 length*
0 $2 width*
0 $3 Rotation angle, in degrees counterclockwise*
0 Add horizontal line*
21,1,$1,$2,0,0,$3*%
%AMFreePoly0*
4,1,19,0.550000,-0.750000,0.000000,-0.750000,0.000000,-0.744911,-0.071157,-0.744911,-0.207708,-0.704816,-0.327430,-0.627875,-0.420627,-0.520320,-0.479746,-0.390866,-0.500000,-0.250000,-0.500000,0.250000,-0.479746,0.390866,-0.420627,0.520320,-0.327430,0.627875,-0.207708,0.704816,-0.071157,0.744911,0.000000,0.744911,0.000000,0.750000,0.550000,0.750000,0.550000,-0.750000,0.550000,-0.750000,
$1*%
%AMFreePoly1*
4,1,19,0.000000,0.744911,0.071157,0.744911,0.207708,0.704816,0.327430,0.627875,0.420627,0.520320,0.479746,0.390866,0.500000,0.250000,0.500000,-0.250000,0.479746,-0.390866,0.420627,-0.520320,0.327430,-0.627875,0.207708,-0.704816,0.071157,-0.744911,0.000000,-0.744911,0.000000,-0.750000,-0.550000,-0.750000,-0.550000,0.750000,0.000000,0.750000,0.000000,0.744911,0.000000,0.744911,
$1*%
G04 Aperture macros list end*
%ADD10RoundRect,0.250000X-0.450000X0.350000X-0.450000X-0.350000X0.450000X-0.350000X0.450000X0.350000X0*%
%ADD11RoundRect,0.155000X0.155000X-0.212500X0.155000X0.212500X-0.155000X0.212500X-0.155000X-0.212500X0*%
%ADD12R,1.600000X1.600000*%
%ADD13C,1.600000*%
%ADD14RoundRect,0.250000X0.850000X0.350000X-0.850000X0.350000X-0.850000X-0.350000X0.850000X-0.350000X0*%
%ADD15RoundRect,0.249997X2.950003X2.650003X-2.950003X2.650003X-2.950003X-2.650003X2.950003X-2.650003X0*%
%ADD16RoundRect,0.237500X0.237500X-0.287500X0.237500X0.287500X-0.237500X0.287500X-0.237500X-0.287500X0*%
%ADD17RoundRect,0.160000X0.197500X0.160000X-0.197500X0.160000X-0.197500X-0.160000X0.197500X-0.160000X0*%
%ADD18FreePoly0,0.000000*%
%ADD19R,1.000000X1.500000*%
%ADD20FreePoly1,0.000000*%
%ADD21RoundRect,0.250000X-0.350000X-0.450000X0.350000X-0.450000X0.350000X0.450000X-0.350000X0.450000X0*%
%ADD22RoundRect,0.155000X-0.212500X-0.155000X0.212500X-0.155000X0.212500X0.155000X-0.212500X0.155000X0*%
%ADD23RoundRect,0.155000X0.212500X0.155000X-0.212500X0.155000X-0.212500X-0.155000X0.212500X-0.155000X0*%
%ADD24RoundRect,0.155000X-0.155000X0.212500X-0.155000X-0.212500X0.155000X-0.212500X0.155000X0.212500X0*%
%ADD25RoundRect,0.155000X-0.040659X-0.259862X0.259862X0.040659X0.040659X0.259862X-0.259862X-0.040659X0*%
%ADD26RoundRect,0.160000X0.160000X-0.197500X0.160000X0.197500X-0.160000X0.197500X-0.160000X-0.197500X0*%
%ADD27RoundRect,0.160000X0.026517X0.252791X-0.252791X-0.026517X-0.026517X-0.252791X0.252791X0.026517X0*%
%ADD28RoundRect,0.155000X-0.259862X0.040659X0.040659X-0.259862X0.259862X-0.040659X-0.040659X0.259862X0*%
%ADD29RoundRect,0.250000X-0.400000X-0.625000X0.400000X-0.625000X0.400000X0.625000X-0.400000X0.625000X0*%
%ADD30RoundRect,0.250000X0.350000X0.450000X-0.350000X0.450000X-0.350000X-0.450000X0.350000X-0.450000X0*%
%ADD31R,0.700000X0.640000*%
%ADD32R,0.700000X0.500000*%
%ADD33R,1.200000X1.500000*%
%ADD34RoundRect,0.155000X0.259862X-0.040659X-0.040659X0.259862X-0.259862X0.040659X0.040659X-0.259862X0*%
%ADD35R,1.700000X1.700000*%
%ADD36O,1.700000X1.700000*%
%ADD37C,2.600000*%
%ADD38RoundRect,0.250000X0.450000X-0.350000X0.450000X0.350000X-0.450000X0.350000X-0.450000X-0.350000X0*%
%ADD39C,2.000000*%
%ADD40RoundRect,0.250000X0.650000X-0.412500X0.650000X0.412500X-0.650000X0.412500X-0.650000X-0.412500X0*%
%ADD41RoundRect,0.400000X0.400000X3.100000X-0.400000X3.100000X-0.400000X-3.100000X0.400000X-3.100000X0*%
%ADD42RoundRect,0.160000X-0.197500X-0.160000X0.197500X-0.160000X0.197500X0.160000X-0.197500X0.160000X0*%
%ADD43RotRect,1.700000X1.700000X135.000000*%
%ADD44HorizOval,1.700000X0.000000X0.000000X0.000000X0.000000X0*%
%ADD45C,1.800000*%
%ADD46RoundRect,0.695000X-0.695000X-0.695000X0.695000X-0.695000X0.695000X0.695000X-0.695000X0.695000X0*%
%ADD47C,2.780000*%
%ADD48RoundRect,0.250000X-0.412500X-1.100000X0.412500X-1.100000X0.412500X1.100000X-0.412500X1.100000X0*%
%ADD49R,1.500000X1.000000*%
%ADD50RoundRect,0.150000X0.150000X-0.825000X0.150000X0.825000X-0.150000X0.825000X-0.150000X-0.825000X0*%
%ADD51RoundRect,0.075000X-0.662500X-0.075000X0.662500X-0.075000X0.662500X0.075000X-0.662500X0.075000X0*%
%ADD52RoundRect,0.075000X-0.075000X-0.662500X0.075000X-0.662500X0.075000X0.662500X-0.075000X0.662500X0*%
%ADD53O,1.600000X1.600000*%
%ADD54RoundRect,0.250000X0.412500X1.100000X-0.412500X1.100000X-0.412500X-1.100000X0.412500X-1.100000X0*%
G04 APERTURE END LIST*
D10*
%TO.C,R11*%
X-41910000Y-2606800D03*
X-41910000Y-4606800D03*
%TD*%
%TO.C,R21*%
X-4748000Y59369200D03*
X-4748000Y57369200D03*
%TD*%
D11*
%TO.C,C7*%
X-111760000Y46422500D03*
X-111760000Y47557500D03*
%TD*%
D12*
%TO.C,C303*%
X8572900Y5659400D03*
D13*
X8572900Y3159400D03*
%TD*%
D14*
%TO.C,VR100*%
X304200Y-13965000D03*
D15*
X-5995800Y-11685000D03*
D14*
X304200Y-9405000D03*
%TD*%
D16*
%TO.C,LED6*%
X-124956000Y42203400D03*
X-124956000Y43953400D03*
%TD*%
D12*
%TO.C,C308*%
X-150825200Y30998800D03*
D13*
X-150825200Y28498800D03*
%TD*%
D17*
%TO.C,R102*%
X-62900Y-16764000D03*
X-1257900Y-16764000D03*
%TD*%
D18*
%TO.C,JP2*%
X-137778800Y-4521200D03*
D19*
X-136478800Y-4521200D03*
D20*
X-135178800Y-4521200D03*
%TD*%
D21*
%TO.C,R201*%
X-132826000Y-6299200D03*
X-130826000Y-6299200D03*
%TD*%
D10*
%TO.C,R10*%
X-37944800Y-2606800D03*
X-37944800Y-4606800D03*
%TD*%
D22*
%TO.C,C207*%
X-91448700Y-5384800D03*
X-90313700Y-5384800D03*
%TD*%
D23*
%TO.C,C206*%
X-115256500Y-7112000D03*
X-116391500Y-7112000D03*
%TD*%
D12*
%TO.C,Q201/Q202*%
X-141964804Y14964625D03*
D13*
X-141964804Y7344625D03*
X-141964804Y-275375D03*
X-134344804Y-275375D03*
X-134344804Y7344625D03*
X-134344804Y14964625D03*
%TD*%
D24*
%TO.C,C6*%
X-113182400Y20633500D03*
X-113182400Y19498500D03*
%TD*%
D25*
%TO.C,C4*%
X-91333283Y31043917D03*
X-90530717Y31846483D03*
%TD*%
D10*
%TO.C,R15*%
X-47853600Y-2606800D03*
X-47853600Y-4606800D03*
%TD*%
D26*
%TO.C,R36*%
X-123342400Y45274900D03*
X-123342400Y46469900D03*
%TD*%
D17*
%TO.C,R1*%
X-116203800Y15595600D03*
X-117398800Y15595600D03*
%TD*%
D10*
%TO.C,R8*%
X-84624800Y-1786000D03*
X-84624800Y-3786000D03*
%TD*%
D24*
%TO.C,C9*%
X-110439200Y21395500D03*
X-110439200Y20260500D03*
%TD*%
D13*
%TO.C,X303*%
X-62865000Y65151000D03*
X1905000Y65151000D03*
X0Y61341000D03*
X-1270000Y63881000D03*
X-2540000Y61341000D03*
X-3810000Y63881000D03*
X-5080000Y61341000D03*
X-6350000Y63881000D03*
X-7620000Y61341000D03*
X-8890000Y63881000D03*
X-10160000Y61341000D03*
X-11430000Y63881000D03*
X-12700000Y61341000D03*
X-13970000Y63881000D03*
X-15240000Y61341000D03*
X-16510000Y63881000D03*
X-17780000Y61341000D03*
X-19050000Y63881000D03*
X-20320000Y61341000D03*
X-21590000Y63881000D03*
X-22860000Y61341000D03*
X-24130000Y63881000D03*
X-25400000Y61341000D03*
X-26670000Y63881000D03*
X-27940000Y61341000D03*
X-29210000Y63881000D03*
X-30480000Y61341000D03*
X-31750000Y63881000D03*
X-33020000Y61341000D03*
X-34290000Y63881000D03*
X-35560000Y61341000D03*
X-36830000Y63881000D03*
X-38100000Y61341000D03*
X-39370000Y63881000D03*
X-40640000Y61341000D03*
X-41910000Y63881000D03*
X-43180000Y61341000D03*
X-44450000Y63881000D03*
X-45720000Y61341000D03*
X-46990000Y63881000D03*
X-48260000Y61341000D03*
X-49530000Y63881000D03*
X-50800000Y61341000D03*
X-52070000Y63881000D03*
X-53340000Y61341000D03*
X-54610000Y63881000D03*
X-55880000Y61341000D03*
X-57150000Y63881000D03*
X-58420000Y61341000D03*
X-59690000Y63881000D03*
X-60960000Y61341000D03*
X-64770000Y63881000D03*
X-66040000Y61341000D03*
X-67310000Y63881000D03*
X-68580000Y61341000D03*
X-69850000Y63881000D03*
X-71120000Y61341000D03*
X-72390000Y63881000D03*
X-73660000Y61341000D03*
X-74930000Y63881000D03*
X-76200000Y61341000D03*
X-77470000Y63881000D03*
X0Y66421000D03*
X-1270000Y68961000D03*
X-2540000Y66421000D03*
X-3810000Y68961000D03*
X-5080000Y66421000D03*
X-6350000Y68961000D03*
X-7620000Y66421000D03*
X-8890000Y68961000D03*
X-10160000Y66421000D03*
X-11430000Y68961000D03*
X-12700000Y66421000D03*
X-13970000Y68961000D03*
X-15240000Y66421000D03*
X-16510000Y68961000D03*
X-17780000Y66421000D03*
X-19050000Y68961000D03*
X-20320000Y66421000D03*
X-21590000Y68961000D03*
X-22860000Y66421000D03*
X-24130000Y68961000D03*
X-25400000Y66421000D03*
X-26670000Y68961000D03*
X-27940000Y66421000D03*
X-29210000Y68961000D03*
X-30480000Y66421000D03*
X-31750000Y68961000D03*
X-33020000Y66421000D03*
X-34290000Y68961000D03*
X-35560000Y66421000D03*
X-36830000Y68961000D03*
X-38100000Y66421000D03*
X-39370000Y68961000D03*
X-40640000Y66421000D03*
X-41910000Y68961000D03*
X-43180000Y66421000D03*
X-44450000Y68961000D03*
X-45720000Y66421000D03*
X-46990000Y68961000D03*
X-48260000Y66421000D03*
X-49530000Y68961000D03*
X-50800000Y66421000D03*
X-52070000Y68961000D03*
X-53340000Y66421000D03*
X-54610000Y68961000D03*
X-55880000Y66421000D03*
X-57150000Y68961000D03*
X-58420000Y66421000D03*
X-59690000Y68961000D03*
X-60960000Y66421000D03*
X-64770000Y68961000D03*
X-66040000Y66421000D03*
X-67310000Y68961000D03*
X-68580000Y66421000D03*
X-69850000Y68961000D03*
X-71120000Y66421000D03*
X-72390000Y68961000D03*
X-73660000Y66421000D03*
X-74930000Y68961000D03*
X-76200000Y66421000D03*
X-77470000Y68961000D03*
%TD*%
D12*
%TO.C,C311*%
X-117449600Y58267600D03*
D13*
X-117449600Y55767600D03*
%TD*%
D12*
%TO.C,C305*%
X8788400Y66695200D03*
D13*
X8788400Y64195200D03*
%TD*%
D16*
%TO.C,LED4*%
X-121709600Y42203400D03*
X-121709600Y43953400D03*
%TD*%
D24*
%TO.C,C1*%
X-103936800Y21446300D03*
X-103936800Y20311300D03*
%TD*%
D10*
%TO.C,R28*%
X1195600Y59369200D03*
X1195600Y57369200D03*
%TD*%
D12*
%TO.C,C307*%
X8829751Y26737558D03*
D13*
X8829751Y24237558D03*
%TD*%
D27*
%TO.C,R40*%
X-126221904Y28870496D03*
X-127066896Y28025504D03*
%TD*%
D28*
%TO.C,C209*%
X-103626883Y-9301517D03*
X-102824317Y-10104083D03*
%TD*%
D29*
%TO.C,R300*%
X-136907200Y35509200D03*
X-133807200Y35509200D03*
%TD*%
D30*
%TO.C,R43*%
X-21428200Y11328400D03*
X-23428200Y11328400D03*
%TD*%
D11*
%TO.C,C204*%
X-111506000Y16247300D03*
X-111506000Y17382300D03*
%TD*%
D10*
%TO.C,R31*%
X-785600Y59369200D03*
X-785600Y57369200D03*
%TD*%
D26*
%TO.C,R35*%
X-121716800Y45274900D03*
X-121716800Y46469900D03*
%TD*%
D31*
%TO.C,RA202*%
X-145468800Y21082000D03*
D32*
X-145468800Y20212000D03*
X-145468800Y19412000D03*
D31*
X-145468800Y18542000D03*
X-144068800Y18542000D03*
D32*
X-144068800Y19412000D03*
X-144068800Y20212000D03*
D31*
X-144068800Y21082000D03*
%TD*%
D10*
%TO.C,R41*%
X-49834800Y-2606800D03*
X-49834800Y-4606800D03*
%TD*%
D22*
%TO.C,C203*%
X-93480700Y14376400D03*
X-92345700Y14376400D03*
%TD*%
D13*
%TO.C,X301*%
X-62865000Y24257000D03*
X1905000Y24257000D03*
X0Y20447000D03*
X-1270000Y22987000D03*
X-2540000Y20447000D03*
X-3810000Y22987000D03*
X-5080000Y20447000D03*
X-6350000Y22987000D03*
X-7620000Y20447000D03*
X-8890000Y22987000D03*
X-10160000Y20447000D03*
X-11430000Y22987000D03*
X-12700000Y20447000D03*
X-13970000Y22987000D03*
X-15240000Y20447000D03*
X-16510000Y22987000D03*
X-17780000Y20447000D03*
X-19050000Y22987000D03*
X-20320000Y20447000D03*
X-21590000Y22987000D03*
X-22860000Y20447000D03*
X-24130000Y22987000D03*
X-25400000Y20447000D03*
X-26670000Y22987000D03*
X-27940000Y20447000D03*
X-29210000Y22987000D03*
X-30480000Y20447000D03*
X-31750000Y22987000D03*
X-33020000Y20447000D03*
X-34290000Y22987000D03*
X-35560000Y20447000D03*
X-36830000Y22987000D03*
X-38100000Y20447000D03*
X-39370000Y22987000D03*
X-40640000Y20447000D03*
X-41910000Y22987000D03*
X-43180000Y20447000D03*
X-44450000Y22987000D03*
X-45720000Y20447000D03*
X-46990000Y22987000D03*
X-48260000Y20447000D03*
X-49530000Y22987000D03*
X-50800000Y20447000D03*
X-52070000Y22987000D03*
X-53340000Y20447000D03*
X-54610000Y22987000D03*
X-55880000Y20447000D03*
X-57150000Y22987000D03*
X-58420000Y20447000D03*
X-59690000Y22987000D03*
X-60960000Y20447000D03*
X-64770000Y22987000D03*
X-66040000Y20447000D03*
X-67310000Y22987000D03*
X-68580000Y20447000D03*
X-69850000Y22987000D03*
X-71120000Y20447000D03*
X-72390000Y22987000D03*
X-73660000Y20447000D03*
X-74930000Y22987000D03*
X-76200000Y20447000D03*
X-77470000Y22987000D03*
X0Y25527000D03*
X-1270000Y28067000D03*
X-2540000Y25527000D03*
X-3810000Y28067000D03*
X-5080000Y25527000D03*
X-6350000Y28067000D03*
X-7620000Y25527000D03*
X-8890000Y28067000D03*
X-10160000Y25527000D03*
X-11430000Y28067000D03*
X-12700000Y25527000D03*
X-13970000Y28067000D03*
X-15240000Y25527000D03*
X-16510000Y28067000D03*
X-17780000Y25527000D03*
X-19050000Y28067000D03*
X-20320000Y25527000D03*
X-21590000Y28067000D03*
X-22860000Y25527000D03*
X-24130000Y28067000D03*
X-25400000Y25527000D03*
X-26670000Y28067000D03*
X-27940000Y25527000D03*
X-29210000Y28067000D03*
X-30480000Y25527000D03*
X-31750000Y28067000D03*
X-33020000Y25527000D03*
X-34290000Y28067000D03*
X-35560000Y25527000D03*
X-36830000Y28067000D03*
X-38100000Y25527000D03*
X-39370000Y28067000D03*
X-40640000Y25527000D03*
X-41910000Y28067000D03*
X-43180000Y25527000D03*
X-44450000Y28067000D03*
X-45720000Y25527000D03*
X-46990000Y28067000D03*
X-48260000Y25527000D03*
X-49530000Y28067000D03*
X-50800000Y25527000D03*
X-52070000Y28067000D03*
X-53340000Y25527000D03*
X-54610000Y28067000D03*
X-55880000Y25527000D03*
X-57150000Y28067000D03*
X-58420000Y25527000D03*
X-59690000Y28067000D03*
X-60960000Y25527000D03*
X-64770000Y28067000D03*
X-66040000Y25527000D03*
X-67310000Y28067000D03*
X-68580000Y25527000D03*
X-69850000Y28067000D03*
X-71120000Y25527000D03*
X-72390000Y28067000D03*
X-73660000Y25527000D03*
X-74930000Y28067000D03*
X-76200000Y25527000D03*
X-77470000Y28067000D03*
%TD*%
D26*
%TO.C,R33*%
X-118465600Y45274900D03*
X-118465600Y46469900D03*
%TD*%
D10*
%TO.C,R14*%
X-45872400Y-2606800D03*
X-45872400Y-4606800D03*
%TD*%
D33*
%TO.C,Q203*%
X-139299600Y16713200D03*
X-139299600Y12613200D03*
X-136499600Y12613200D03*
X-136499600Y16713200D03*
%TD*%
D34*
%TO.C,C202*%
X-117094000Y8788400D03*
X-117896566Y9590966D03*
%TD*%
D26*
%TO.C,R34*%
X-120091200Y45274900D03*
X-120091200Y46469900D03*
%TD*%
D21*
%TO.C,R3*%
X-84413600Y25501600D03*
X-82413600Y25501600D03*
%TD*%
%TO.C,R210*%
X-147456400Y-6654800D03*
X-145456400Y-6654800D03*
%TD*%
D16*
%TO.C,LED5*%
X-123332800Y42203400D03*
X-123332800Y43953400D03*
%TD*%
D11*
%TO.C,C201*%
X-104546400Y16247300D03*
X-104546400Y17382300D03*
%TD*%
D22*
%TO.C,C3*%
X-93887100Y44551600D03*
X-92752100Y44551600D03*
%TD*%
D21*
%TO.C,R4*%
X-84616800Y43434000D03*
X-82616800Y43434000D03*
%TD*%
D10*
%TO.C,R18*%
X-10691600Y59369200D03*
X-10691600Y57369200D03*
%TD*%
D16*
%TO.C,LED2*%
X-118463200Y42203400D03*
X-118463200Y43953400D03*
%TD*%
D23*
%TO.C,C230*%
X-135576500Y18643600D03*
X-136711500Y18643600D03*
%TD*%
D30*
%TO.C,R7*%
X-82413600Y67106800D03*
X-84413600Y67106800D03*
%TD*%
D22*
%TO.C,C5*%
X-91550300Y24892000D03*
X-90415300Y24892000D03*
%TD*%
D30*
%TO.C,R44*%
X-23714200Y31648400D03*
X-25714200Y31648400D03*
%TD*%
D10*
%TO.C,R16*%
X-55778400Y-2606800D03*
X-55778400Y-4606800D03*
%TD*%
D12*
%TO.C,C300*%
X8761278Y46171022D03*
D13*
X8761278Y43671022D03*
%TD*%
D21*
%TO.C,R23*%
X-20608800Y16916400D03*
X-18608800Y16916400D03*
%TD*%
D24*
%TO.C,C208*%
X-110490000Y-9033700D03*
X-110490000Y-10168700D03*
%TD*%
D21*
%TO.C,R209*%
X-147456400Y-4521200D03*
X-145456400Y-4521200D03*
%TD*%
D26*
%TO.C,R37*%
X-124917200Y45274900D03*
X-124917200Y46469900D03*
%TD*%
D27*
%TO.C,R39*%
X-127120208Y29750192D03*
X-127965200Y28905200D03*
%TD*%
D35*
%TO.C,SV2*%
X-110185200Y65176400D03*
D36*
X-110185200Y67716400D03*
X-107645200Y65176400D03*
X-107645200Y67716400D03*
X-105105200Y65176400D03*
X-105105200Y67716400D03*
X-102565200Y65176400D03*
X-102565200Y67716400D03*
X-100025200Y65176400D03*
X-100025200Y67716400D03*
X-97485200Y65176400D03*
X-97485200Y67716400D03*
X-94945200Y65176400D03*
X-94945200Y67716400D03*
X-92405200Y65176400D03*
X-92405200Y67716400D03*
X-89865200Y65176400D03*
X-89865200Y67716400D03*
X-87325200Y65176400D03*
X-87325200Y67716400D03*
%TD*%
D13*
%TO.C,X300*%
X-62865000Y3810000D03*
X1905000Y3810000D03*
X0Y0D03*
X-1270000Y2540000D03*
X-2540000Y0D03*
X-3810000Y2540000D03*
X-5080000Y0D03*
X-6350000Y2540000D03*
X-7620000Y0D03*
X-8890000Y2540000D03*
X-10160000Y0D03*
X-11430000Y2540000D03*
X-12700000Y0D03*
X-13970000Y2540000D03*
X-15240000Y0D03*
X-16510000Y2540000D03*
X-17780000Y0D03*
X-19050000Y2540000D03*
X-20320000Y0D03*
X-21590000Y2540000D03*
X-22860000Y0D03*
X-24130000Y2540000D03*
X-25400000Y0D03*
X-26670000Y2540000D03*
X-27940000Y0D03*
X-29210000Y2540000D03*
X-30480000Y0D03*
X-31750000Y2540000D03*
X-33020000Y0D03*
X-34290000Y2540000D03*
X-35560000Y0D03*
X-36830000Y2540000D03*
X-38100000Y0D03*
X-39370000Y2540000D03*
X-40640000Y0D03*
X-41910000Y2540000D03*
X-43180000Y0D03*
X-44450000Y2540000D03*
X-45720000Y0D03*
X-46990000Y2540000D03*
X-48260000Y0D03*
X-49530000Y2540000D03*
X-50800000Y0D03*
X-52070000Y2540000D03*
X-53340000Y0D03*
X-54610000Y2540000D03*
X-55880000Y0D03*
X-57150000Y2540000D03*
X-58420000Y0D03*
X-59690000Y2540000D03*
X-60960000Y0D03*
X-64770000Y2540000D03*
X-66040000Y0D03*
X-67310000Y2540000D03*
X-68580000Y0D03*
X-69850000Y2540000D03*
X-71120000Y0D03*
X-72390000Y2540000D03*
X-73660000Y0D03*
X-74930000Y2540000D03*
X-76200000Y0D03*
X-77470000Y2540000D03*
X0Y5080000D03*
X-1270000Y7620000D03*
X-2540000Y5080000D03*
X-3810000Y7620000D03*
X-5080000Y5080000D03*
X-6350000Y7620000D03*
X-7620000Y5080000D03*
X-8890000Y7620000D03*
X-10160000Y5080000D03*
X-11430000Y7620000D03*
X-12700000Y5080000D03*
X-13970000Y7620000D03*
X-15240000Y5080000D03*
X-16510000Y7620000D03*
X-17780000Y5080000D03*
X-19050000Y7620000D03*
X-20320000Y5080000D03*
X-21590000Y7620000D03*
X-22860000Y5080000D03*
X-24130000Y7620000D03*
X-25400000Y5080000D03*
X-26670000Y7620000D03*
X-27940000Y5080000D03*
X-29210000Y7620000D03*
X-30480000Y5080000D03*
X-31750000Y7620000D03*
X-33020000Y5080000D03*
X-34290000Y7620000D03*
X-35560000Y5080000D03*
X-36830000Y7620000D03*
X-38100000Y5080000D03*
X-39370000Y7620000D03*
X-40640000Y5080000D03*
X-41910000Y7620000D03*
X-43180000Y5080000D03*
X-44450000Y7620000D03*
X-45720000Y5080000D03*
X-46990000Y7620000D03*
X-48260000Y5080000D03*
X-49530000Y7620000D03*
X-50800000Y5080000D03*
X-52070000Y7620000D03*
X-53340000Y5080000D03*
X-54610000Y7620000D03*
X-55880000Y5080000D03*
X-57150000Y7620000D03*
X-58420000Y5080000D03*
X-59690000Y7620000D03*
X-60960000Y5080000D03*
X-64770000Y7620000D03*
X-66040000Y5080000D03*
X-67310000Y7620000D03*
X-68580000Y5080000D03*
X-69850000Y7620000D03*
X-71120000Y5080000D03*
X-72390000Y7620000D03*
X-73660000Y5080000D03*
X-74930000Y7620000D03*
X-76200000Y5080000D03*
X-77470000Y7620000D03*
%TD*%
D37*
%TO.C,VR300*%
X-148939500Y49446500D03*
X-148939500Y46271500D03*
X-148939500Y43096500D03*
X-148939500Y39921500D03*
X-132429500Y39921500D03*
X-129889500Y39921500D03*
X-132429500Y49446500D03*
X-129889500Y49446500D03*
%TD*%
D38*
%TO.C,R26*%
X-86156800Y53622100D03*
X-86156800Y55622100D03*
%TD*%
%TO.C,R2*%
X-82491200Y-3786000D03*
X-82491200Y-1786000D03*
%TD*%
D39*
%TO.C,FID1*%
X-153974800Y-14681200D03*
%TD*%
D21*
%TO.C,R22*%
X-21980400Y-3352800D03*
X-19980400Y-3352800D03*
%TD*%
D10*
%TO.C,R30*%
X3170083Y59369200D03*
X3170083Y57369200D03*
%TD*%
D12*
%TO.C,C302*%
X8699502Y36332800D03*
D13*
X8699502Y33832800D03*
%TD*%
D16*
%TO.C,LED1*%
X-116840000Y42203400D03*
X-116840000Y43953400D03*
%TD*%
D10*
%TO.C,R20*%
X-8710400Y59369200D03*
X-8710400Y57369200D03*
%TD*%
D40*
%TO.C,C309*%
X-153619200Y53821800D03*
X-153619200Y56946800D03*
%TD*%
D27*
%TO.C,R38*%
X-128050704Y30648496D03*
X-128895696Y29803504D03*
%TD*%
D41*
%TO.C,U1*%
X10820400Y-23977600D03*
X8280400Y-23977600D03*
X5740400Y-23977600D03*
X3200400Y-23977600D03*
X660400Y-23977600D03*
X-1879600Y-23977600D03*
X-4419600Y-23977600D03*
X-6959600Y-23977600D03*
X-9499600Y-23977600D03*
X-12039600Y-23977600D03*
X-14579600Y-23977600D03*
X-17119600Y-23977600D03*
X-19659600Y-23977600D03*
X-22199600Y-23977600D03*
X-24739600Y-23977600D03*
X-27279600Y-23977600D03*
X-29819600Y-23977600D03*
X-32359600Y-23977600D03*
X-34899600Y-23977600D03*
X-37439600Y-23977600D03*
X-39979600Y-23977600D03*
X-42519600Y-23977600D03*
X-45059600Y-23977600D03*
X-47599600Y-23977600D03*
X-50139600Y-23977600D03*
X-52679600Y-23977600D03*
X-55219600Y-23977600D03*
X-57759600Y-23977600D03*
X-60299600Y-23977600D03*
X-62839600Y-23977600D03*
X-65379600Y-23977600D03*
X-67919600Y-23977600D03*
X-70459600Y-23977600D03*
X-72999600Y-23977600D03*
X-75539600Y-23977600D03*
X-78079600Y-23977600D03*
X-80619600Y-23977600D03*
X-83159600Y-23977600D03*
X-85699600Y-23977600D03*
X-88239600Y-23977600D03*
X-90779600Y-23977600D03*
X-93319600Y-23977600D03*
X-95859600Y-23977600D03*
X-98399600Y-23977600D03*
X-100939600Y-23977600D03*
X-103479600Y-23977600D03*
X-106019600Y-23977600D03*
X-108559600Y-23977600D03*
X-111099600Y-23977600D03*
X-113639600Y-23977600D03*
%TD*%
D10*
%TO.C,R17*%
X-53797200Y-2606800D03*
X-53797200Y-4606800D03*
%TD*%
D30*
%TO.C,R9*%
X-82413600Y28041600D03*
X-84413600Y28041600D03*
%TD*%
%TO.C,R46*%
X-24400000Y57835800D03*
X-26400000Y57835800D03*
%TD*%
D42*
%TO.C,R101*%
X-1257900Y-15697200D03*
X-62900Y-15697200D03*
%TD*%
D12*
%TO.C,C304*%
X1002021Y14451931D03*
D13*
X3502021Y14451931D03*
%TD*%
D40*
%TO.C,C310*%
X-121970800Y60261100D03*
X-121970800Y63386100D03*
%TD*%
D43*
%TO.C,SV3*%
X-124350692Y30755785D03*
D44*
X-126146743Y32551836D03*
X-122554641Y32551836D03*
X-124350692Y34347887D03*
X-120758590Y34347887D03*
X-122554641Y36143939D03*
%TD*%
D11*
%TO.C,C10*%
X-114198400Y45355700D03*
X-114198400Y46490700D03*
%TD*%
D21*
%TO.C,R24*%
X-20389600Y37338000D03*
X-18389600Y37338000D03*
%TD*%
D30*
%TO.C,R6*%
X-82566000Y48564800D03*
X-84566000Y48564800D03*
%TD*%
D45*
%TO.C,CON300*%
X-149132173Y60693143D03*
X-143947242Y69910526D03*
X-133946189Y69893214D03*
X-128755301Y60693143D03*
D46*
X-131371986Y58644321D03*
D47*
X-136451986Y58644321D03*
X-141520886Y58640221D03*
X-146601086Y58640221D03*
%TD*%
D48*
%TO.C,C12*%
X3885400Y-13563600D03*
X7010400Y-13563600D03*
%TD*%
D49*
%TO.C,JP1*%
X2082800Y-16327600D03*
X2082800Y-17627600D03*
%TD*%
D25*
%TO.C,C205*%
X-90926883Y817917D03*
X-90124317Y1620483D03*
%TD*%
D23*
%TO.C,C2*%
X-116882100Y38811200D03*
X-118017100Y38811200D03*
%TD*%
D10*
%TO.C,R42*%
X-51816000Y-2606800D03*
X-51816000Y-4606800D03*
%TD*%
D11*
%TO.C,C8*%
X-104241600Y46371700D03*
X-104241600Y47506700D03*
%TD*%
D26*
%TO.C,R32*%
X-116840000Y45274900D03*
X-116840000Y46469900D03*
%TD*%
D10*
%TO.C,R29*%
X-2766800Y59369200D03*
X-2766800Y57369200D03*
%TD*%
D50*
%TO.C,IC220*%
X-137972800Y-14667000D03*
X-136702800Y-14667000D03*
X-135432800Y-14667000D03*
X-134162800Y-14667000D03*
X-134162800Y-9717000D03*
X-135432800Y-9717000D03*
X-136702800Y-9717000D03*
X-137972800Y-9717000D03*
%TD*%
D12*
%TO.C,C306*%
X-14941691Y55562759D03*
D13*
X-14941691Y53062759D03*
%TD*%
D21*
%TO.C,R45*%
X-22513800Y52070000D03*
X-20513800Y52070000D03*
%TD*%
D51*
%TO.C,IC201H1*%
X-114904100Y42582800D03*
X-114904100Y42082800D03*
X-114904100Y41582800D03*
X-114904100Y41082800D03*
X-114904100Y40582800D03*
X-114904100Y40082800D03*
X-114904100Y39582800D03*
X-114904100Y39082800D03*
X-114904100Y38582800D03*
X-114904100Y38082800D03*
X-114904100Y37582800D03*
X-114904100Y37082800D03*
X-114904100Y36582800D03*
X-114904100Y36082800D03*
X-114904100Y35582800D03*
X-114904100Y35082800D03*
X-114904100Y34582800D03*
X-114904100Y34082800D03*
X-114904100Y33582800D03*
X-114904100Y33082800D03*
X-114904100Y32582800D03*
X-114904100Y32082800D03*
X-114904100Y31582800D03*
X-114904100Y31082800D03*
X-114904100Y30582800D03*
X-114904100Y30082800D03*
X-114904100Y29582800D03*
X-114904100Y29082800D03*
X-114904100Y28582800D03*
X-114904100Y28082800D03*
X-114904100Y27582800D03*
X-114904100Y27082800D03*
X-114904100Y26582800D03*
X-114904100Y26082800D03*
X-114904100Y25582800D03*
X-114904100Y25082800D03*
D52*
X-112991600Y23170300D03*
X-112491600Y23170300D03*
X-111991600Y23170300D03*
X-111491600Y23170300D03*
X-110991600Y23170300D03*
X-110491600Y23170300D03*
X-109991600Y23170300D03*
X-109491600Y23170300D03*
X-108991600Y23170300D03*
X-108491600Y23170300D03*
X-107991600Y23170300D03*
X-107491600Y23170300D03*
X-106991600Y23170300D03*
X-106491600Y23170300D03*
X-105991600Y23170300D03*
X-105491600Y23170300D03*
X-104991600Y23170300D03*
X-104491600Y23170300D03*
X-103991600Y23170300D03*
X-103491600Y23170300D03*
X-102991600Y23170300D03*
X-102491600Y23170300D03*
X-101991600Y23170300D03*
X-101491600Y23170300D03*
X-100991600Y23170300D03*
X-100491600Y23170300D03*
X-99991600Y23170300D03*
X-99491600Y23170300D03*
X-98991600Y23170300D03*
X-98491600Y23170300D03*
X-97991600Y23170300D03*
X-97491600Y23170300D03*
X-96991600Y23170300D03*
X-96491600Y23170300D03*
X-95991600Y23170300D03*
X-95491600Y23170300D03*
D51*
X-93579100Y25082800D03*
X-93579100Y25582800D03*
X-93579100Y26082800D03*
X-93579100Y26582800D03*
X-93579100Y27082800D03*
X-93579100Y27582800D03*
X-93579100Y28082800D03*
X-93579100Y28582800D03*
X-93579100Y29082800D03*
X-93579100Y29582800D03*
X-93579100Y30082800D03*
X-93579100Y30582800D03*
X-93579100Y31082800D03*
X-93579100Y31582800D03*
X-93579100Y32082800D03*
X-93579100Y32582800D03*
X-93579100Y33082800D03*
X-93579100Y33582800D03*
X-93579100Y34082800D03*
X-93579100Y34582800D03*
X-93579100Y35082800D03*
X-93579100Y35582800D03*
X-93579100Y36082800D03*
X-93579100Y36582800D03*
X-93579100Y37082800D03*
X-93579100Y37582800D03*
X-93579100Y38082800D03*
X-93579100Y38582800D03*
X-93579100Y39082800D03*
X-93579100Y39582800D03*
X-93579100Y40082800D03*
X-93579100Y40582800D03*
X-93579100Y41082800D03*
X-93579100Y41582800D03*
X-93579100Y42082800D03*
X-93579100Y42582800D03*
D52*
X-95491600Y44495300D03*
X-95991600Y44495300D03*
X-96491600Y44495300D03*
X-96991600Y44495300D03*
X-97491600Y44495300D03*
X-97991600Y44495300D03*
X-98491600Y44495300D03*
X-98991600Y44495300D03*
X-99491600Y44495300D03*
X-99991600Y44495300D03*
X-100491600Y44495300D03*
X-100991600Y44495300D03*
X-101491600Y44495300D03*
X-101991600Y44495300D03*
X-102491600Y44495300D03*
X-102991600Y44495300D03*
X-103491600Y44495300D03*
X-103991600Y44495300D03*
X-104491600Y44495300D03*
X-104991600Y44495300D03*
X-105491600Y44495300D03*
X-105991600Y44495300D03*
X-106491600Y44495300D03*
X-106991600Y44495300D03*
X-107491600Y44495300D03*
X-107991600Y44495300D03*
X-108491600Y44495300D03*
X-108991600Y44495300D03*
X-109491600Y44495300D03*
X-109991600Y44495300D03*
X-110491600Y44495300D03*
X-110991600Y44495300D03*
X-111491600Y44495300D03*
X-111991600Y44495300D03*
X-112491600Y44495300D03*
X-112991600Y44495300D03*
%TD*%
D12*
%TO.C,C301*%
X8686800Y56297200D03*
D13*
X8686800Y53797200D03*
%TD*%
D10*
%TO.C,R12*%
X-39928800Y-2606800D03*
X-39928800Y-4606800D03*
%TD*%
D12*
%TO.C,CON200*%
X-141427200Y21386800D03*
D53*
X-141427200Y23926800D03*
X-138887200Y21386800D03*
X-138887200Y23926800D03*
X-136347200Y21386800D03*
X-136347200Y23926800D03*
X-133807200Y21386800D03*
X-133807200Y23926800D03*
X-131267200Y21386800D03*
X-131267200Y23926800D03*
%TD*%
D10*
%TO.C,R13*%
X-43891200Y-2606800D03*
X-43891200Y-4606800D03*
%TD*%
D39*
%TO.C,FID2*%
X5486400Y69443600D03*
%TD*%
D21*
%TO.C,R25*%
X-20608800Y57810400D03*
X-18608800Y57810400D03*
%TD*%
%TO.C,R5*%
X-84464400Y63957200D03*
X-82464400Y63957200D03*
%TD*%
D13*
%TO.C,X302*%
X-62865000Y44705000D03*
X1905000Y44705000D03*
X0Y40895000D03*
X-1270000Y43435000D03*
X-2540000Y40895000D03*
X-3810000Y43435000D03*
X-5080000Y40895000D03*
X-6350000Y43435000D03*
X-7620000Y40895000D03*
X-8890000Y43435000D03*
X-10160000Y40895000D03*
X-11430000Y43435000D03*
X-12700000Y40895000D03*
X-13970000Y43435000D03*
X-15240000Y40895000D03*
X-16510000Y43435000D03*
X-17780000Y40895000D03*
X-19050000Y43435000D03*
X-20320000Y40895000D03*
X-21590000Y43435000D03*
X-22860000Y40895000D03*
X-24130000Y43435000D03*
X-25400000Y40895000D03*
X-26670000Y43435000D03*
X-27940000Y40895000D03*
X-29210000Y43435000D03*
X-30480000Y40895000D03*
X-31750000Y43435000D03*
X-33020000Y40895000D03*
X-34290000Y43435000D03*
X-35560000Y40895000D03*
X-36830000Y43435000D03*
X-38100000Y40895000D03*
X-39370000Y43435000D03*
X-40640000Y40895000D03*
X-41910000Y43435000D03*
X-43180000Y40895000D03*
X-44450000Y43435000D03*
X-45720000Y40895000D03*
X-46990000Y43435000D03*
X-48260000Y40895000D03*
X-49530000Y43435000D03*
X-50800000Y40895000D03*
X-52070000Y43435000D03*
X-53340000Y40895000D03*
X-54610000Y43435000D03*
X-55880000Y40895000D03*
X-57150000Y43435000D03*
X-58420000Y40895000D03*
X-59690000Y43435000D03*
X-60960000Y40895000D03*
X-64770000Y43435000D03*
X-66040000Y40895000D03*
X-67310000Y43435000D03*
X-68580000Y40895000D03*
X-69850000Y43435000D03*
X-71120000Y40895000D03*
X-72390000Y43435000D03*
X-73660000Y40895000D03*
X-74930000Y43435000D03*
X-76200000Y40895000D03*
X-77470000Y43435000D03*
X0Y45975000D03*
X-1270000Y48515000D03*
X-2540000Y45975000D03*
X-3810000Y48515000D03*
X-5080000Y45975000D03*
X-6350000Y48515000D03*
X-7620000Y45975000D03*
X-8890000Y48515000D03*
X-10160000Y45975000D03*
X-11430000Y48515000D03*
X-12700000Y45975000D03*
X-13970000Y48515000D03*
X-15240000Y45975000D03*
X-16510000Y48515000D03*
X-17780000Y45975000D03*
X-19050000Y48515000D03*
X-20320000Y45975000D03*
X-21590000Y48515000D03*
X-22860000Y45975000D03*
X-24130000Y48515000D03*
X-25400000Y45975000D03*
X-26670000Y48515000D03*
X-27940000Y45975000D03*
X-29210000Y48515000D03*
X-30480000Y45975000D03*
X-31750000Y48515000D03*
X-33020000Y45975000D03*
X-34290000Y48515000D03*
X-35560000Y45975000D03*
X-36830000Y48515000D03*
X-38100000Y45975000D03*
X-39370000Y48515000D03*
X-40640000Y45975000D03*
X-41910000Y48515000D03*
X-43180000Y45975000D03*
X-44450000Y48515000D03*
X-45720000Y45975000D03*
X-46990000Y48515000D03*
X-48260000Y45975000D03*
X-49530000Y48515000D03*
X-50800000Y45975000D03*
X-52070000Y48515000D03*
X-53340000Y45975000D03*
X-54610000Y48515000D03*
X-55880000Y45975000D03*
X-57150000Y48515000D03*
X-58420000Y45975000D03*
X-59690000Y48515000D03*
X-60960000Y45975000D03*
X-64770000Y48515000D03*
X-66040000Y45975000D03*
X-67310000Y48515000D03*
X-68580000Y45975000D03*
X-69850000Y48515000D03*
X-71120000Y45975000D03*
X-72390000Y48515000D03*
X-73660000Y45975000D03*
X-74930000Y48515000D03*
X-76200000Y45975000D03*
X-77470000Y48515000D03*
%TD*%
D18*
%TO.C,JP3*%
X-137778800Y-7172700D03*
D19*
X-136478800Y-7172700D03*
D20*
X-135178800Y-7172700D03*
%TD*%
D54*
%TO.C,C11*%
X-15049100Y-11633200D03*
X-18174100Y-11633200D03*
%TD*%
D16*
%TO.C,LED3*%
X-120086400Y42203400D03*
X-120086400Y43953400D03*
%TD*%
D35*
%TO.C,SV1*%
X-16967200Y-5257124D03*
D36*
X-14427200Y-5257124D03*
X-11887200Y-5257124D03*
X-9347200Y-5257124D03*
X-6807200Y-5257124D03*
X-4267200Y-5257124D03*
X-1727200Y-5257124D03*
%TD*%
D23*
%TO.C,C200*%
X-116272500Y14071600D03*
X-117407500Y14071600D03*
%TD*%
D51*
%TO.C,IC200L1*%
X-114898600Y12374400D03*
X-114898600Y11874400D03*
X-114898600Y11374400D03*
X-114898600Y10874400D03*
X-114898600Y10374400D03*
X-114898600Y9874400D03*
X-114898600Y9374400D03*
X-114898600Y8874400D03*
X-114898600Y8374400D03*
X-114898600Y7874400D03*
X-114898600Y7374400D03*
X-114898600Y6874400D03*
X-114898600Y6374400D03*
X-114898600Y5874400D03*
X-114898600Y5374400D03*
X-114898600Y4874400D03*
X-114898600Y4374400D03*
X-114898600Y3874400D03*
X-114898600Y3374400D03*
X-114898600Y2874400D03*
X-114898600Y2374400D03*
X-114898600Y1874400D03*
X-114898600Y1374400D03*
X-114898600Y874400D03*
X-114898600Y374400D03*
X-114898600Y-125600D03*
X-114898600Y-625600D03*
X-114898600Y-1125600D03*
X-114898600Y-1625600D03*
X-114898600Y-2125600D03*
X-114898600Y-2625600D03*
X-114898600Y-3125600D03*
X-114898600Y-3625600D03*
X-114898600Y-4125600D03*
X-114898600Y-4625600D03*
X-114898600Y-5125600D03*
D52*
X-112986100Y-7038100D03*
X-112486100Y-7038100D03*
X-111986100Y-7038100D03*
X-111486100Y-7038100D03*
X-110986100Y-7038100D03*
X-110486100Y-7038100D03*
X-109986100Y-7038100D03*
X-109486100Y-7038100D03*
X-108986100Y-7038100D03*
X-108486100Y-7038100D03*
X-107986100Y-7038100D03*
X-107486100Y-7038100D03*
X-106986100Y-7038100D03*
X-106486100Y-7038100D03*
X-105986100Y-7038100D03*
X-105486100Y-7038100D03*
X-104986100Y-7038100D03*
X-104486100Y-7038100D03*
X-103986100Y-7038100D03*
X-103486100Y-7038100D03*
X-102986100Y-7038100D03*
X-102486100Y-7038100D03*
X-101986100Y-7038100D03*
X-101486100Y-7038100D03*
X-100986100Y-7038100D03*
X-100486100Y-7038100D03*
X-99986100Y-7038100D03*
X-99486100Y-7038100D03*
X-98986100Y-7038100D03*
X-98486100Y-7038100D03*
X-97986100Y-7038100D03*
X-97486100Y-7038100D03*
X-96986100Y-7038100D03*
X-96486100Y-7038100D03*
X-95986100Y-7038100D03*
X-95486100Y-7038100D03*
D51*
X-93573600Y-5125600D03*
X-93573600Y-4625600D03*
X-93573600Y-4125600D03*
X-93573600Y-3625600D03*
X-93573600Y-3125600D03*
X-93573600Y-2625600D03*
X-93573600Y-2125600D03*
X-93573600Y-1625600D03*
X-93573600Y-1125600D03*
X-93573600Y-625600D03*
X-93573600Y-125600D03*
X-93573600Y374400D03*
X-93573600Y874400D03*
X-93573600Y1374400D03*
X-93573600Y1874400D03*
X-93573600Y2374400D03*
X-93573600Y2874400D03*
X-93573600Y3374400D03*
X-93573600Y3874400D03*
X-93573600Y4374400D03*
X-93573600Y4874400D03*
X-93573600Y5374400D03*
X-93573600Y5874400D03*
X-93573600Y6374400D03*
X-93573600Y6874400D03*
X-93573600Y7374400D03*
X-93573600Y7874400D03*
X-93573600Y8374400D03*
X-93573600Y8874400D03*
X-93573600Y9374400D03*
X-93573600Y9874400D03*
X-93573600Y10374400D03*
X-93573600Y10874400D03*
X-93573600Y11374400D03*
X-93573600Y11874400D03*
X-93573600Y12374400D03*
D52*
X-95486100Y14286900D03*
X-95986100Y14286900D03*
X-96486100Y14286900D03*
X-96986100Y14286900D03*
X-97486100Y14286900D03*
X-97986100Y14286900D03*
X-98486100Y14286900D03*
X-98986100Y14286900D03*
X-99486100Y14286900D03*
X-99986100Y14286900D03*
X-100486100Y14286900D03*
X-100986100Y14286900D03*
X-101486100Y14286900D03*
X-101986100Y14286900D03*
X-102486100Y14286900D03*
X-102986100Y14286900D03*
X-103486100Y14286900D03*
X-103986100Y14286900D03*
X-104486100Y14286900D03*
X-104986100Y14286900D03*
X-105486100Y14286900D03*
X-105986100Y14286900D03*
X-106486100Y14286900D03*
X-106986100Y14286900D03*
X-107486100Y14286900D03*
X-107986100Y14286900D03*
X-108486100Y14286900D03*
X-108986100Y14286900D03*
X-109486100Y14286900D03*
X-109986100Y14286900D03*
X-110486100Y14286900D03*
X-110986100Y14286900D03*
X-111486100Y14286900D03*
X-111986100Y14286900D03*
X-112486100Y14286900D03*
X-112986100Y14286900D03*
%TD*%
D30*
%TO.C,R27*%
X-82566000Y46380400D03*
X-84566000Y46380400D03*
%TD*%
D22*
%TO.C,C220*%
X-136609900Y-17068800D03*
X-135474900Y-17068800D03*
%TD*%
D21*
%TO.C,R202*%
X-132826000Y-4318000D03*
X-130826000Y-4318000D03*
%TD*%
D10*
%TO.C,R19*%
X-6729200Y59369200D03*
X-6729200Y57369200D03*
%TD*%
M02*
