M48
; DRILL file {KiCad 7.0.9} date So 25 Feb 2024 17:12:22 CET
; FORMAT={-:-/ absolute / inch / decimal}
; #@! TF.CreationDate,2024-02-25T17:12:22+01:00
; #@! TF.GenerationSoftware,Kicad,Pcbnew,7.0.9
; #@! TF.FileFunction,Plated,1,4,PTH
FMAT,2
INCH
; #@! TA.AperFunction,Plated,PTH,ViaDrill
T1C0.0118
; #@! TA.AperFunction,Plated,PTH,ComponentDrill
T2C0.0315
; #@! TA.AperFunction,Plated,PTH,ComponentDrill
T3C0.0394
; #@! TA.AperFunction,Plated,PTH,ComponentDrill
T4C0.0433
; #@! TA.AperFunction,Plated,PTH,ComponentDrill
T5C0.0591
; #@! TA.AperFunction,Plated,PTH,ComponentDrill
T6C0.0701
%
G90
G05
T1
X-6.1123Y2.238
X-6.0454Y2.2971
X-5.9824Y2.238
X-5.9667Y-0.1793
X-5.9273Y-0.1793
X-5.8604Y-0.2344
X-5.8604Y-0.2895
X-5.7698Y0.8246
X-5.7698Y0.7617
X-5.7265Y-0.1124
X-5.7265Y-0.0755
X-5.4273Y0.7341
X-5.4244Y-0.228
X-5.4233Y-0.6714
X-5.342Y-0.498
X-5.322Y-0.228
X-5.2895Y-0.6749
X-5.069Y1.1081
X-4.9391Y0.9585
X-4.8919Y1.0963
X-4.8682Y2.4939
X-4.8013Y2.553
X-4.7344Y2.4939
X-4.7068Y1.0648
X-4.6985Y0.5259
X-4.695Y1.5294
X-4.6753Y0.4979
X-4.6743Y0.4093
X-4.6665Y0.555
X-4.662Y0.466
X-4.6556Y0.2931
X-4.6541Y0.175
X-4.642Y1.33
X-4.642Y0.438
X-4.6301Y0.2144
X-4.6271Y-0.2797
X-4.6202Y0.41
X-4.6084Y1.0648
X-4.6044Y0.2538
X-4.6005Y1.8719
X-4.5992Y0.383
X-4.5901Y-0.0533
X-4.5901Y-0.195
X-4.5887Y1.1042
X-4.5848Y0.1465
X-4.5804Y0.2144
X-4.5741Y0.6605
X-4.569Y0.5166
X-4.5533Y0.868
X-4.5533Y0.8286
X-4.5257Y1.8286
X-4.5257Y0.8955
X-4.51Y-0.758
X-4.4893Y-0.2777
X-4.4745Y1.4861
X-4.4745Y1.4309
X-4.4745Y1.3758
X-4.472Y0.998
X-4.472Y0.362
X-4.4706Y1.5491
X-4.4706Y1.3325
X-4.4706Y1.1317
X-4.47Y1.676
X-4.4676Y0.6199
X-4.466Y0.26
X-4.4627Y1.805
X-4.458Y0.2267
X-4.4548Y0.7223
X-4.4509Y1.5136
X-4.4509Y1.4585
X-4.4509Y1.4034
X-4.4509Y0.6632
X-4.449Y-0.7636
X-4.447Y0.8601
X-4.4384Y0.1975
X-4.4312Y-0.4903
X-4.43Y0.964
X-4.4273Y0.6908
X-4.4186Y0.1696
X-4.41Y-0.664
X-4.4037Y0.738
X-4.4033Y0.1389
X-4.3997Y1.9191
X-4.3997Y-0.762
X-4.3958Y1.6987
X-4.3813Y0.1127
X-4.3797Y0.5123
X-4.3722Y-0.0489
X-4.3618Y-0.1877
X-4.3585Y-0.2226
X-4.3525Y1.8404
X-4.3487Y-0.156
X-4.3446Y0.9624
X-4.3407Y-0.0336
X-4.3352Y-0.4454
X-4.33Y0.7558
X-4.3214Y1.9034
X-4.3155Y-0.1479
X-4.3092Y-0.0179
X-4.3017Y1.8719
X-4.2895Y-0.1714
X-4.2806Y1.8413
X-4.2777Y-0.0019
X-4.27Y1.646
X-4.258Y-0.224
X-4.258Y0.9624
X-4.2576Y-0.1898
X-4.2506Y1.9073
X-4.2489Y-0.0993
X-4.2462Y0.0141
X-4.2303Y1.8758
X-4.2244Y-0.1804
X-4.2147Y0.0294
X-4.2103Y1.8443
X-4.2029Y-0.7742
X-4.1836Y1.9152
X-4.1622Y1.8838
X-4.1438Y1.8522
X-4.122Y1.7
X-4.1182Y0.7321
X-4.105Y0.513
X-4.1044Y1.9191
X-4.1009Y-0.2089
X-4.1005Y0.9624
X-4.0887Y0.7538
X-4.044Y0.512
X-4.0407Y1.7007
X-4.0361Y0.301
X-4.0296Y1.8798
X-4.0183Y0.3325
X-4.0139Y-0.4313
X-4.0025Y0.364
X-3.9942Y1.8955
X-3.9863Y0.3955
X-3.974Y-0.7644
X-3.9617Y-0.2226
X-3.9588Y1.8798
X-3.9539Y0.364
X-3.9509Y0.9624
X-3.9379Y0.3325
X-3.9233Y1.8955
X-3.9229Y0.301
X-3.915Y0.7538
X-3.9115Y0.6514
X-3.8958Y0.4349
X-3.8879Y1.8798
X-3.88Y0.4703
X-3.874Y-0.7644
X-3.8643Y1.7026
X-3.8643Y0.7853
X-3.8525Y1.8955
X-3.852Y0.512
X-3.8289Y1.8404
X-3.8249Y-0.7502
X-3.817Y0.7026
X-3.8163Y0.5056
X-3.774Y-0.7644
X-3.768Y1.698
X-3.7659Y0.9624
X-3.748Y1.01
X-3.748Y-0.186
X-3.7422Y0.4713
X-3.7383Y1.3325
X-3.7383Y1.2931
X-3.7383Y0.1475
X-3.7383Y0.1002
X-3.738Y0.304
X-3.736Y1.208
X-3.7344Y1.6711
X-3.7344Y1.5057
X-3.7344Y0.0205
X-3.7294Y-0.2817
X-3.7275Y0.5687
X-3.7226Y-0.7502
X-3.7147Y2.1475
X-3.6241Y-0.758
X-3.6044Y1.7538
X-3.5897Y0.5668
X-3.5848Y-0.7344
X-3.522Y1.268
X-3.5218Y-0.7502
X-3.5109Y0.0983
X-3.5109Y-0.2128
X-3.51Y0.9782
X-3.446Y2.116
X-3.4312Y-0.7423
X-3.382Y1.904
X-3.382Y1.826
X-3.38Y1.104
X-3.378Y1.004
X-3.3317Y-0.1937
X-3.328Y2.446
X-3.326Y2.7
X-3.3249Y-0.7462
X-3.324Y1.652
X-3.2946Y0.0086
X-3.248Y-0.194
X-3.226Y0.008
X-3.1911Y1.8246
X-3.1793Y1.7105
X-3.1793Y1.1042
X-3.1793Y1.0057
X-3.1753Y1.9113
X-3.174Y-0.7691
X-3.1281Y-0.7462
X-3.0257Y-0.7462
X-2.9155Y-0.7462
X-2.821Y-0.7462
X-2.792Y2.318
X-2.792Y2.2786
X-2.792Y2.2393
X-2.792Y2.1999
X-2.792Y2.1605
X-2.742Y2.318
X-2.742Y2.2786
X-2.742Y2.2393
X-2.742Y2.1999
X-2.742Y2.1605
X-2.692Y2.318
X-2.692Y2.2786
X-2.692Y2.2393
X-2.692Y2.1999
X-2.692Y2.1605
X-2.642Y2.318
X-2.642Y2.2786
X-2.642Y2.2393
X-2.642Y2.1999
X-2.642Y2.1605
X-2.5919Y2.318
X-2.5919Y2.2786
X-2.5919Y2.2393
X-2.5919Y2.1999
X-2.5919Y2.1605
X-2.574Y-0.7457
X-2.542Y2.318
X-2.542Y2.2786
X-2.542Y2.2393
X-2.542Y2.1999
X-2.542Y2.1605
X-2.4919Y2.318
X-2.4919Y2.2786
X-2.4919Y2.2393
X-2.4919Y2.1999
X-2.4919Y2.1605
X-2.4419Y2.318
X-2.4419Y2.2786
X-2.4419Y2.2393
X-2.4419Y2.1999
X-2.4419Y2.1605
X-2.4233Y-0.7462
X-2.3249Y-0.7462
X-2.256Y-0.182
X-2.2226Y-0.7462
X-2.1241Y-0.7462
X-1.974Y-0.7457
X-1.9443Y1.1623
X-1.9241Y1.956
X-1.7737Y-0.7502
X-1.6753Y-0.7502
X-1.5769Y-0.7502
X-1.55Y0.6875
X-1.53Y1.5415
X-1.4745Y-0.7502
X-1.4724Y1.9876
X-1.434Y-0.18
X-1.374Y-0.756
X-1.1753Y-0.7502
X-1.073Y-0.7502
X-0.906Y1.54
X-0.862Y1.54
X-0.8525Y-0.7738
X-0.8101Y1.5401
X-0.8013Y1.175
X-0.774Y-0.7547
X-0.7737Y-0.4588
X-0.7147Y-0.3722
X-0.7147Y-0.5454
X-0.6517Y-0.7777
X-0.6123Y-0.7777
X-0.5926Y-0.3407
X-0.5926Y-0.5769
X-0.569Y-0.6832
X-0.5666Y-0.7753
X-0.5415Y-0.3407
X-0.5415Y-0.3919
X-0.5415Y-0.5257
X-0.5415Y-0.5769
X-0.4903Y-0.3407
X-0.4903Y-0.3919
X-0.4903Y-0.5257
X-0.4903Y-0.5769
X-0.4824Y-0.6596
X-0.473Y2.281
X-0.4391Y-0.3407
X-0.4391Y-0.3919
X-0.4391Y-0.5257
X-0.4391Y-0.5769
X-0.4352Y-0.7541
X-0.4076Y-0.6242
X-0.36Y1.454
X-0.3564Y-0.6242
X-0.326Y1.422
X-0.3052Y-0.6242
X-0.296Y1.39
X-0.2659Y1.358
X-0.2541Y-0.6242
X-0.2029Y-0.6242
X-0.174Y-0.7726
X-0.1517Y-0.6242
X-0.0966Y-0.6596
X-0.073Y-0.758
X-0.045Y2.2014
X-0.045Y2.1614
X-0.045Y2.1214
X-0.0025Y2.2014
X-0.0025Y2.1614
X-0.0025Y2.1214
X0.0019Y-0.762
X0.04Y2.2014
X0.04Y2.1614
X0.04Y2.1214
X0.08Y2.202
X0.08Y2.1614
X0.08Y2.1214
X0.082Y-0.756
X0.126Y2.292
X0.1554Y-0.6754
X0.1908Y-0.7108
X0.1987Y-0.0651
X0.2263Y-0.7462
X0.2735Y-0.447
X0.2735Y-0.6163
X0.326Y-0.7507
X0.3286Y-0.5336
X0.426Y-0.7507
T2
X-5.938Y1.2204
X-5.938Y1.122
X-5.5892Y0.5892
X-5.5892Y0.2892
X-5.5892Y-0.0108
X-5.2892Y0.5892
X-5.2892Y0.2892
X-5.2892Y-0.0108
X-4.624Y2.294
X-4.624Y2.1956
X-0.5883Y2.1875
X-0.5883Y2.0891
X0.0394Y0.569
X0.1379Y0.569
X0.3375Y0.2228
X0.3375Y0.1244
X0.342Y2.2164
X0.342Y2.118
X0.3425Y1.4304
X0.3425Y1.332
X0.3449Y1.8178
X0.3449Y1.7193
X0.346Y2.6258
X0.346Y2.5274
X0.3476Y1.0527
X0.3476Y0.9542
T3
X-5.568Y0.942
X-5.568Y0.842
X-5.468Y0.942
X-5.468Y0.842
X-5.368Y0.942
X-5.368Y0.842
X-5.268Y0.942
X-5.268Y0.842
X-5.168Y0.942
X-5.168Y0.842
X-4.9664Y1.2816
X-4.8957Y1.3523
X-4.8957Y1.2109
X-4.825Y1.423
X-4.825Y1.2816
X-4.7543Y1.3523
X-4.338Y2.666
X-4.338Y2.566
X-4.238Y2.666
X-4.238Y2.566
X-4.138Y2.666
X-4.138Y2.566
X-4.038Y2.666
X-4.038Y2.566
X-3.938Y2.666
X-3.938Y2.566
X-3.838Y2.666
X-3.838Y2.566
X-3.738Y2.666
X-3.738Y2.566
X-3.638Y2.666
X-3.638Y2.566
X-3.538Y2.666
X-3.538Y2.566
X-3.438Y2.666
X-3.438Y2.566
X-0.668Y-0.207
X-0.568Y-0.207
X-0.468Y-0.207
X-0.368Y-0.207
X-0.268Y-0.207
X-0.168Y-0.207
X-0.068Y-0.207
T4
X-3.05Y2.715
X-3.05Y2.515
X-3.05Y1.91
X-3.05Y1.71
X-3.05Y1.105
X-3.05Y0.905
X-3.05Y0.3
X-3.05Y0.1
X-3.0Y2.615
X-3.0Y2.415
X-3.0Y1.81
X-3.0Y1.61
X-3.0Y1.005
X-3.0Y0.805
X-3.0Y0.2
X-3.0Y0.0
X-2.95Y2.715
X-2.95Y2.515
X-2.95Y1.91
X-2.95Y1.71
X-2.95Y1.105
X-2.95Y0.905
X-2.95Y0.3
X-2.95Y0.1
X-2.9Y2.615
X-2.9Y2.415
X-2.9Y1.81
X-2.9Y1.61
X-2.9Y1.005
X-2.9Y0.805
X-2.9Y0.2
X-2.9Y0.0
X-2.85Y2.715
X-2.85Y2.515
X-2.85Y1.91
X-2.85Y1.71
X-2.85Y1.105
X-2.85Y0.905
X-2.85Y0.3
X-2.85Y0.1
X-2.8Y2.615
X-2.8Y2.415
X-2.8Y1.81
X-2.8Y1.61
X-2.8Y1.005
X-2.8Y0.805
X-2.8Y0.2
X-2.8Y0.0
X-2.75Y2.715
X-2.75Y2.515
X-2.75Y1.91
X-2.75Y1.71
X-2.75Y1.105
X-2.75Y0.905
X-2.75Y0.3
X-2.75Y0.1
X-2.7Y2.615
X-2.7Y2.415
X-2.7Y1.81
X-2.7Y1.61
X-2.7Y1.005
X-2.7Y0.805
X-2.7Y0.2
X-2.7Y0.0
X-2.65Y2.715
X-2.65Y2.515
X-2.65Y1.91
X-2.65Y1.71
X-2.65Y1.105
X-2.65Y0.905
X-2.65Y0.3
X-2.65Y0.1
X-2.6Y2.615
X-2.6Y2.415
X-2.6Y1.81
X-2.6Y1.61
X-2.6Y1.005
X-2.6Y0.805
X-2.6Y0.2
X-2.6Y0.0
X-2.55Y2.715
X-2.55Y2.515
X-2.55Y1.91
X-2.55Y1.71
X-2.55Y1.105
X-2.55Y0.905
X-2.55Y0.3
X-2.55Y0.1
X-2.4Y2.615
X-2.4Y2.415
X-2.4Y1.81
X-2.4Y1.61
X-2.4Y1.005
X-2.4Y0.805
X-2.4Y0.2
X-2.4Y0.0
X-2.35Y2.715
X-2.35Y2.515
X-2.35Y1.91
X-2.35Y1.71
X-2.35Y1.105
X-2.35Y0.905
X-2.35Y0.3
X-2.35Y0.1
X-2.3Y2.615
X-2.3Y2.415
X-2.3Y1.81
X-2.3Y1.61
X-2.3Y1.005
X-2.3Y0.805
X-2.3Y0.2
X-2.3Y0.0
X-2.25Y2.715
X-2.25Y2.515
X-2.25Y1.91
X-2.25Y1.71
X-2.25Y1.105
X-2.25Y0.905
X-2.25Y0.3
X-2.25Y0.1
X-2.2Y2.615
X-2.2Y2.415
X-2.2Y1.81
X-2.2Y1.61
X-2.2Y1.005
X-2.2Y0.805
X-2.2Y0.2
X-2.2Y0.0
X-2.15Y2.715
X-2.15Y2.515
X-2.15Y1.91
X-2.15Y1.71
X-2.15Y1.105
X-2.15Y0.905
X-2.15Y0.3
X-2.15Y0.1
X-2.1Y2.615
X-2.1Y2.415
X-2.1Y1.81
X-2.1Y1.61
X-2.1Y1.005
X-2.1Y0.805
X-2.1Y0.2
X-2.1Y0.0
X-2.05Y2.715
X-2.05Y2.515
X-2.05Y1.91
X-2.05Y1.71
X-2.05Y1.105
X-2.05Y0.905
X-2.05Y0.3
X-2.05Y0.1
X-2.0Y2.615
X-2.0Y2.415
X-2.0Y1.81
X-2.0Y1.61
X-2.0Y1.005
X-2.0Y0.805
X-2.0Y0.2
X-2.0Y0.0
X-1.95Y2.715
X-1.95Y2.515
X-1.95Y1.91
X-1.95Y1.71
X-1.95Y1.105
X-1.95Y0.905
X-1.95Y0.3
X-1.95Y0.1
X-1.9Y2.615
X-1.9Y2.415
X-1.9Y1.81
X-1.9Y1.61
X-1.9Y1.005
X-1.9Y0.805
X-1.9Y0.2
X-1.9Y0.0
X-1.85Y2.715
X-1.85Y2.515
X-1.85Y1.91
X-1.85Y1.71
X-1.85Y1.105
X-1.85Y0.905
X-1.85Y0.3
X-1.85Y0.1
X-1.8Y2.615
X-1.8Y2.415
X-1.8Y1.81
X-1.8Y1.61
X-1.8Y1.005
X-1.8Y0.805
X-1.8Y0.2
X-1.8Y0.0
X-1.75Y2.715
X-1.75Y2.515
X-1.75Y1.91
X-1.75Y1.71
X-1.75Y1.105
X-1.75Y0.905
X-1.75Y0.3
X-1.75Y0.1
X-1.7Y2.615
X-1.7Y2.415
X-1.7Y1.81
X-1.7Y1.61
X-1.7Y1.005
X-1.7Y0.805
X-1.7Y0.2
X-1.7Y0.0
X-1.65Y2.715
X-1.65Y2.515
X-1.65Y1.91
X-1.65Y1.71
X-1.65Y1.105
X-1.65Y0.905
X-1.65Y0.3
X-1.65Y0.1
X-1.6Y2.615
X-1.6Y2.415
X-1.6Y1.81
X-1.6Y1.61
X-1.6Y1.005
X-1.6Y0.805
X-1.6Y0.2
X-1.6Y0.0
X-1.55Y2.715
X-1.55Y2.515
X-1.55Y1.91
X-1.55Y1.71
X-1.55Y1.105
X-1.55Y0.905
X-1.55Y0.3
X-1.55Y0.1
X-1.5Y2.615
X-1.5Y2.415
X-1.5Y1.81
X-1.5Y1.61
X-1.5Y1.005
X-1.5Y0.805
X-1.5Y0.2
X-1.5Y0.0
X-1.45Y2.715
X-1.45Y2.515
X-1.45Y1.91
X-1.45Y1.71
X-1.45Y1.105
X-1.45Y0.905
X-1.45Y0.3
X-1.45Y0.1
X-1.4Y2.615
X-1.4Y2.415
X-1.4Y1.81
X-1.4Y1.61
X-1.4Y1.005
X-1.4Y0.805
X-1.4Y0.2
X-1.4Y0.0
X-1.35Y2.715
X-1.35Y2.515
X-1.35Y1.91
X-1.35Y1.71
X-1.35Y1.105
X-1.35Y0.905
X-1.35Y0.3
X-1.35Y0.1
X-1.3Y2.615
X-1.3Y2.415
X-1.3Y1.81
X-1.3Y1.61
X-1.3Y1.005
X-1.3Y0.805
X-1.3Y0.2
X-1.3Y0.0
X-1.25Y2.715
X-1.25Y2.515
X-1.25Y1.91
X-1.25Y1.71
X-1.25Y1.105
X-1.25Y0.905
X-1.25Y0.3
X-1.25Y0.1
X-1.2Y2.615
X-1.2Y2.415
X-1.2Y1.81
X-1.2Y1.61
X-1.2Y1.005
X-1.2Y0.805
X-1.2Y0.2
X-1.2Y0.0
X-1.15Y2.715
X-1.15Y2.515
X-1.15Y1.91
X-1.15Y1.71
X-1.15Y1.105
X-1.15Y0.905
X-1.15Y0.3
X-1.15Y0.1
X-1.1Y2.615
X-1.1Y2.415
X-1.1Y1.81
X-1.1Y1.61
X-1.1Y1.005
X-1.1Y0.805
X-1.1Y0.2
X-1.1Y0.0
X-1.05Y2.715
X-1.05Y2.515
X-1.05Y1.91
X-1.05Y1.71
X-1.05Y1.105
X-1.05Y0.905
X-1.05Y0.3
X-1.05Y0.1
X-1.0Y2.615
X-1.0Y2.415
X-1.0Y1.81
X-1.0Y1.61
X-1.0Y1.005
X-1.0Y0.805
X-1.0Y0.2
X-1.0Y0.0
X-0.95Y2.715
X-0.95Y2.515
X-0.95Y1.91
X-0.95Y1.71
X-0.95Y1.105
X-0.95Y0.905
X-0.95Y0.3
X-0.95Y0.1
X-0.9Y2.615
X-0.9Y2.415
X-0.9Y1.81
X-0.9Y1.61
X-0.9Y1.005
X-0.9Y0.805
X-0.9Y0.2
X-0.9Y0.0
X-0.85Y2.715
X-0.85Y2.515
X-0.85Y1.91
X-0.85Y1.71
X-0.85Y1.105
X-0.85Y0.905
X-0.85Y0.3
X-0.85Y0.1
X-0.8Y2.615
X-0.8Y2.415
X-0.8Y1.81
X-0.8Y1.61
X-0.8Y1.005
X-0.8Y0.805
X-0.8Y0.2
X-0.8Y0.0
X-0.75Y2.715
X-0.75Y2.515
X-0.75Y1.91
X-0.75Y1.71
X-0.75Y1.105
X-0.75Y0.905
X-0.75Y0.3
X-0.75Y0.1
X-0.7Y2.615
X-0.7Y2.415
X-0.7Y1.81
X-0.7Y1.61
X-0.7Y1.005
X-0.7Y0.805
X-0.7Y0.2
X-0.7Y0.0
X-0.65Y2.715
X-0.65Y2.515
X-0.65Y1.91
X-0.65Y1.71
X-0.65Y1.105
X-0.65Y0.905
X-0.65Y0.3
X-0.65Y0.1
X-0.6Y2.615
X-0.6Y2.415
X-0.6Y1.81
X-0.6Y1.61
X-0.6Y1.005
X-0.6Y0.805
X-0.6Y0.2
X-0.6Y0.0
X-0.55Y2.715
X-0.55Y2.515
X-0.55Y1.91
X-0.55Y1.71
X-0.55Y1.105
X-0.55Y0.905
X-0.55Y0.3
X-0.55Y0.1
X-0.5Y2.615
X-0.5Y2.415
X-0.5Y1.81
X-0.5Y1.61
X-0.5Y1.005
X-0.5Y0.805
X-0.5Y0.2
X-0.5Y0.0
X-0.45Y2.715
X-0.45Y2.515
X-0.45Y1.91
X-0.45Y1.71
X-0.45Y1.105
X-0.45Y0.905
X-0.45Y0.3
X-0.45Y0.1
X-0.4Y2.615
X-0.4Y2.415
X-0.4Y1.81
X-0.4Y1.61
X-0.4Y1.005
X-0.4Y0.805
X-0.4Y0.2
X-0.4Y0.0
X-0.35Y2.715
X-0.35Y2.515
X-0.35Y1.91
X-0.35Y1.71
X-0.35Y1.105
X-0.35Y0.905
X-0.35Y0.3
X-0.35Y0.1
X-0.3Y2.615
X-0.3Y2.415
X-0.3Y1.81
X-0.3Y1.61
X-0.3Y1.005
X-0.3Y0.805
X-0.3Y0.2
X-0.3Y0.0
X-0.25Y2.715
X-0.25Y2.515
X-0.25Y1.91
X-0.25Y1.71
X-0.25Y1.105
X-0.25Y0.905
X-0.25Y0.3
X-0.25Y0.1
X-0.2Y2.615
X-0.2Y2.415
X-0.2Y1.81
X-0.2Y1.61
X-0.2Y1.005
X-0.2Y0.805
X-0.2Y0.2
X-0.2Y0.0
X-0.15Y2.715
X-0.15Y2.515
X-0.15Y1.91
X-0.15Y1.71
X-0.15Y1.105
X-0.15Y0.905
X-0.15Y0.3
X-0.15Y0.1
X-0.1Y2.615
X-0.1Y2.415
X-0.1Y1.81
X-0.1Y1.61
X-0.1Y1.005
X-0.1Y0.805
X-0.1Y0.2
X-0.1Y0.0
X-0.05Y2.715
X-0.05Y2.515
X-0.05Y1.91
X-0.05Y1.71
X-0.05Y1.105
X-0.05Y0.905
X-0.05Y0.3
X-0.05Y0.1
X0.0Y2.615
X0.0Y2.415
X0.0Y1.81
X0.0Y1.61
X0.0Y1.005
X0.0Y0.805
X0.0Y0.2
X0.0Y0.0
T5
X-5.8638Y1.9467
X-5.8638Y1.8217
X-5.8638Y1.6967
X-5.8638Y1.5717
X-5.2138Y1.9467
X-5.2138Y1.5717
X-5.1138Y1.9467
X-5.1138Y1.5717
T6
X-5.7717Y2.3087
X-5.5717Y2.3087
X-5.3721Y2.3088
X-5.1721Y2.3088
T0
M30
